<?xml version="1.0" encoding="UTF-8" standalone="no"?>
<!DOCTYPE svg PUBLIC "-//W3C//DTD SVG 1.1//EN"
 "http://www.w3.org/Graphics/SVG/1.1/DTD/svg11.dtd">
<!-- Generated by graphviz version 14.0.0 (20250921.2048)
 -->
<!-- Title: AWS SaaS: CI/CD &#45;&gt; Prod (simplified) Pages: 1 -->
<svg width="1334pt" height="1025pt"
 viewBox="0.00 0.00 1334.00 1025.00" xmlns="http://www.w3.org/2000/svg" xmlns:xlink="http://www.w3.org/1999/xlink">
<g id="graph0" class="graph" transform="scale(1 1) rotate(0) translate(144 881.15)">
<title>AWS SaaS: CI/CD &#45;&gt; Prod (simplified)</title>
<polygon fill="white" stroke="none" points="-144,144 -144,-881.15 1189.6,-881.15 1189.6,144 -144,144"/>
<text xml:space="preserve" text-anchor="middle" x="522.8" y="-5.5" font-family="Sans-Serif" font-size="15.00" fill="#2d3436">AWS SaaS: CI/CD &#45;&gt; Prod (simplified)</text>
<g id="clust1" class="cluster">
<title>cluster_VPC / Prod</title>
<path fill="#e5f5fd" stroke="#aeb6be" d="M770,-196.15C770,-196.15 1025.6,-196.15 1025.6,-196.15 1031.6,-196.15 1037.6,-202.15 1037.6,-208.15 1037.6,-208.15 1037.6,-717.15 1037.6,-717.15 1037.6,-723.15 1031.6,-729.15 1025.6,-729.15 1025.6,-729.15 770,-729.15 770,-729.15 764,-729.15 758,-723.15 758,-717.15 758,-717.15 758,-208.15 758,-208.15 758,-202.15 764,-196.15 770,-196.15"/>
<text xml:space="preserve" text-anchor="middle" x="796" y="-713.75" font-family="Sans-Serif" font-size="12.00" fill="#2d3436">VPC / Prod</text>
</g>
<g id="clust2" class="cluster">
<title>cluster_Compute</title>
<path fill="#ebf3e7" stroke="#aeb6be" d="M778,-290.15C778,-290.15 870.8,-290.15 870.8,-290.15 876.8,-290.15 882.8,-296.15 882.8,-302.15 882.8,-302.15 882.8,-451.15 882.8,-451.15 882.8,-457.15 876.8,-463.15 870.8,-463.15 870.8,-463.15 778,-463.15 778,-463.15 772,-463.15 766,-457.15 766,-451.15 766,-451.15 766,-302.15 766,-302.15 766,-296.15 772,-290.15 778,-290.15"/>
<text xml:space="preserve" text-anchor="middle" x="798.37" y="-447.75" font-family="Sans-Serif" font-size="12.00" fill="#2d3436">Compute</text>
</g>
<!-- f0d6e70eacf743bc9a4ac6e127a88c52 -->
<g id="node1" class="node">
<title>f0d6e70eacf743bc9a4ac6e127a88c52</title>
<image xlink:href="/Users/emma/Irish-Project/hands-on/Hands-on-Lab.Python-Diagram/venv/lib/python3.13/site-packages/resources/aws/general/user.png" width="100.8px" height="100.8px" preserveAspectRatio="xMinYMin meet" x="9.9476e-14" y="-236.55"/>
<text xml:space="preserve" text-anchor="middle" x="50.4" y="-118.9" font-family="Sans-Serif" font-size="13.00" fill="#2d3436">Customer</text>
</g>
<!-- 1c990393969e41a9946551905659352f -->
<g id="node2" class="node">
<title>1c990393969e41a9946551905659352f</title>
<image xlink:href="/Users/emma/Irish-Project/hands-on/Hands-on-Lab.Python-Diagram/venv/lib/python3.13/site-packages/resources/aws/network/cloudfront.png" width="100.8px" height="100.8px" preserveAspectRatio="xMinYMin meet" x="154.8" y="-236.55"/>
<text xml:space="preserve" text-anchor="middle" x="205.2" y="-118.9" font-family="Sans-Serif" font-size="13.00" fill="#2d3436">cdn</text>
</g>
<!-- f0d6e70eacf743bc9a4ac6e127a88c52&#45;&gt;1c990393969e41a9946551905659352f -->
<g id="edge1" class="edge">
<title>f0d6e70eacf743bc9a4ac6e127a88c52&#45;&gt;1c990393969e41a9946551905659352f</title>
<path fill="none" stroke="#7b8894" d="M100.66,-186.15C100.66,-186.15 143.41,-186.15 143.41,-186.15"/>
<polygon fill="#7b8894" stroke="#7b8894" points="143.41,-189.65 153.41,-186.15 143.41,-182.65 143.41,-189.65"/>
</g>
<!-- f1443f452e8a411e94f2feff500c772b -->
<g id="node3" class="node">
<title>f1443f452e8a411e94f2feff500c772b</title>
<image xlink:href="/Users/emma/Irish-Project/hands-on/Hands-on-Lab.Python-Diagram/venv/lib/python3.13/site-packages/resources/aws/network/elastic-load-balancing.png" width="100.8px" height="100.8px" preserveAspectRatio="xMinYMin meet" x="309.6" y="-236.55"/>
<text xml:space="preserve" text-anchor="middle" x="360" y="-118.9" font-family="Sans-Serif" font-size="13.00" fill="#2d3436">alb</text>
</g>
<!-- 1c990393969e41a9946551905659352f&#45;&gt;f1443f452e8a411e94f2feff500c772b -->
<g id="edge2" class="edge">
<title>1c990393969e41a9946551905659352f&#45;&gt;f1443f452e8a411e94f2feff500c772b</title>
<path fill="none" stroke="#7b8894" d="M255.46,-186.15C255.46,-186.15 298.21,-186.15 298.21,-186.15"/>
<polygon fill="#7b8894" stroke="#7b8894" points="298.21,-189.65 308.21,-186.15 298.21,-182.65 298.21,-189.65"/>
</g>
<!-- 629705e21f9e4e28a41d5500c78a87af -->
<g id="node4" class="node">
<title>629705e21f9e4e28a41d5500c78a87af</title>
<image xlink:href="/Users/emma/Irish-Project/hands-on/Hands-on-Lab.Python-Diagram/venv/lib/python3.13/site-packages/resources/aws/compute/elastic-container-service.png" width="100.8px" height="100.8px" preserveAspectRatio="xMinYMin meet" x="774" y="-416.55"/>
<text xml:space="preserve" text-anchor="middle" x="824.4" y="-298.9" font-family="Sans-Serif" font-size="13.00" fill="#2d3436">ecs&#45;cluster</text>
</g>
<!-- c5e93dec993a4222bbe433a99836c7a4 -->
<g id="node5" class="node">
<title>c5e93dec993a4222bbe433a99836c7a4</title>
<image xlink:href="/Users/emma/Irish-Project/hands-on/Hands-on-Lab.Python-Diagram/venv/lib/python3.13/site-packages/resources/aws/database/rds-instance.png" width="100.8px" height="100.8px" preserveAspectRatio="xMinYMin meet" x="928.8" y="-322.55"/>
<text xml:space="preserve" text-anchor="middle" x="979.2" y="-204.9" font-family="Sans-Serif" font-size="13.00" fill="#2d3436">user&#45;db</text>
</g>
<!-- 629705e21f9e4e28a41d5500c78a87af&#45;&gt;c5e93dec993a4222bbe433a99836c7a4 -->
<g id="edge8" class="edge">
<title>629705e21f9e4e28a41d5500c78a87af&#45;&gt;c5e93dec993a4222bbe433a99836c7a4</title>
<path fill="none" stroke="#7b8894" d="M874.66,-319.15C874.66,-319.15 917.41,-319.15 917.41,-319.15"/>
<polygon fill="#7b8894" stroke="#7b8894" points="917.41,-322.65 927.41,-319.15 917.41,-315.65 917.41,-322.65"/>
</g>
<!-- f5854cbbed9842abad51fc0c272a58c5 -->
<g id="node6" class="node">
<title>f5854cbbed9842abad51fc0c272a58c5</title>
<image xlink:href="/Users/emma/Irish-Project/hands-on/Hands-on-Lab.Python-Diagram/venv/lib/python3.13/site-packages/resources/aws/database/dynamodb-table.png" width="100.8px" height="100.8px" preserveAspectRatio="xMinYMin meet" x="928.8" y="-502.55"/>
<text xml:space="preserve" text-anchor="middle" x="979.2" y="-384.9" font-family="Sans-Serif" font-size="13.00" fill="#2d3436">session&#45;store</text>
</g>
<!-- 629705e21f9e4e28a41d5500c78a87af&#45;&gt;f5854cbbed9842abad51fc0c272a58c5 -->
<g id="edge9" class="edge">
<title>629705e21f9e4e28a41d5500c78a87af&#45;&gt;f5854cbbed9842abad51fc0c272a58c5</title>
<path fill="none" stroke="#7b8894" d="M874.66,-409.15C874.66,-409.15 917.41,-409.15 917.41,-409.15"/>
<polygon fill="#7b8894" stroke="#7b8894" points="917.41,-412.65 927.41,-409.15 917.41,-405.65 917.41,-412.65"/>
</g>
<!-- ee6250c43a89409d82662a1abf6a2838 -->
<g id="node7" class="node">
<title>ee6250c43a89409d82662a1abf6a2838</title>
<image xlink:href="/Users/emma/Irish-Project/hands-on/Hands-on-Lab.Python-Diagram/venv/lib/python3.13/site-packages/resources/aws/storage/simple-storage-service-s3.png" width="100.8px" height="100.8px" preserveAspectRatio="xMinYMin meet" x="928.8" y="-682.55"/>
<text xml:space="preserve" text-anchor="middle" x="979.2" y="-564.9" font-family="Sans-Serif" font-size="13.00" fill="#2d3436">assets&#45;bucket</text>
</g>
<!-- 629705e21f9e4e28a41d5500c78a87af&#45;&gt;ee6250c43a89409d82662a1abf6a2838 -->
<g id="edge10" class="edge">
<title>629705e21f9e4e28a41d5500c78a87af&#45;&gt;ee6250c43a89409d82662a1abf6a2838</title>
<path fill="none" stroke="#7b8894" d="M824.6,-434.31C824.6,-513.12 824.6,-632.15 824.6,-632.15 824.6,-632.15 917.49,-632.15 917.49,-632.15"/>
<polygon fill="#7b8894" stroke="#7b8894" points="917.49,-635.65 927.49,-632.15 917.49,-628.65 917.49,-635.65"/>
</g>
<!-- 6cba855f95724c04bddb4676c6ab9af6 -->
<g id="node13" class="node">
<title>6cba855f95724c04bddb4676c6ab9af6</title>
<image xlink:href="/Users/emma/Irish-Project/hands-on/Hands-on-Lab.Python-Diagram/venv/lib/python3.13/site-packages/resources/aws/integration/eventbridge.png" width="100.8px" height="100.8px" preserveAspectRatio="xMinYMin meet" x="928.8" y="-142.55"/>
<text xml:space="preserve" text-anchor="middle" x="979.2" y="-24.9" font-family="Sans-Serif" font-size="13.00" fill="#2d3436">events</text>
</g>
<!-- 629705e21f9e4e28a41d5500c78a87af&#45;&gt;6cba855f95724c04bddb4676c6ab9af6 -->
<g id="edge11" class="edge">
<title>629705e21f9e4e28a41d5500c78a87af&#45;&gt;6cba855f95724c04bddb4676c6ab9af6</title>
<path fill="none" stroke="#7b8894" d="M824.6,-298.04C824.6,-231.18 824.6,-139.15 824.6,-139.15 824.6,-139.15 917.49,-139.15 917.49,-139.15"/>
<polygon fill="#7b8894" stroke="#7b8894" points="917.49,-142.65 927.49,-139.15 917.49,-135.65 917.49,-142.65"/>
</g>
<!-- 3f895729415745a683617895bdd3521f -->
<g id="node8" class="node">
<title>3f895729415745a683617895bdd3521f</title>
<image xlink:href="/Users/emma/Irish-Project/hands-on/Hands-on-Lab.Python-Diagram/venv/lib/python3.13/site-packages/resources/aws/security/identity-and-access-management-iam.png" width="100.8px" height="100.8px" preserveAspectRatio="xMinYMin meet" x="8.52651e-14" y="-416.55"/>
<text xml:space="preserve" text-anchor="middle" x="50.4" y="-298.9" font-family="Sans-Serif" font-size="13.00" fill="#2d3436">git&#45;repo (SaaS)</text>
</g>
<!-- 4026126f4e6e441fa73dba57d181ae50 -->
<g id="node9" class="node">
<title>4026126f4e6e441fa73dba57d181ae50</title>
<image xlink:href="/Users/emma/Irish-Project/hands-on/Hands-on-Lab.Python-Diagram/venv/lib/python3.13/site-packages/resources/aws/devtools/codepipeline.png" width="100.8px" height="100.8px" preserveAspectRatio="xMinYMin meet" x="154.8" y="-416.55"/>
<text xml:space="preserve" text-anchor="middle" x="205.2" y="-298.9" font-family="Sans-Serif" font-size="13.00" fill="#2d3436">codepipeline</text>
</g>
<!-- 3f895729415745a683617895bdd3521f&#45;&gt;4026126f4e6e441fa73dba57d181ae50 -->
<g id="edge3" class="edge">
<title>3f895729415745a683617895bdd3521f&#45;&gt;4026126f4e6e441fa73dba57d181ae50</title>
<path fill="none" stroke="#7b8894" d="M100.66,-366.15C100.66,-366.15 143.41,-366.15 143.41,-366.15"/>
<polygon fill="#7b8894" stroke="#7b8894" points="143.41,-369.65 153.41,-366.15 143.41,-362.65 143.41,-369.65"/>
</g>
<!-- 1281343314484e7384d394f90b0b1719 -->
<g id="node10" class="node">
<title>1281343314484e7384d394f90b0b1719</title>
<image xlink:href="/Users/emma/Irish-Project/hands-on/Hands-on-Lab.Python-Diagram/venv/lib/python3.13/site-packages/resources/aws/devtools/codebuild.png" width="100.8px" height="100.8px" preserveAspectRatio="xMinYMin meet" x="309.6" y="-416.55"/>
<text xml:space="preserve" text-anchor="middle" x="360" y="-298.9" font-family="Sans-Serif" font-size="13.00" fill="#2d3436">build</text>
</g>
<!-- 4026126f4e6e441fa73dba57d181ae50&#45;&gt;1281343314484e7384d394f90b0b1719 -->
<g id="edge4" class="edge">
<title>4026126f4e6e441fa73dba57d181ae50&#45;&gt;1281343314484e7384d394f90b0b1719</title>
<path fill="none" stroke="#7b8894" d="M255.46,-366.15C255.46,-366.15 298.21,-366.15 298.21,-366.15"/>
<polygon fill="#7b8894" stroke="#7b8894" points="298.21,-369.65 308.21,-366.15 298.21,-362.65 298.21,-369.65"/>
</g>
<!-- cc03ff4afef9477ba6b782796955f5df -->
<g id="node11" class="node">
<title>cc03ff4afef9477ba6b782796955f5df</title>
<image xlink:href="/Users/emma/Irish-Project/hands-on/Hands-on-Lab.Python-Diagram/venv/lib/python3.13/site-packages/resources/onprem/container/docker.png" width="100.8px" height="100.8px" preserveAspectRatio="xMinYMin meet" x="464.4" y="-416.55"/>
<text xml:space="preserve" text-anchor="middle" x="514.8" y="-298.9" font-family="Sans-Serif" font-size="13.00" fill="#2d3436">ECR (AWS Container Registry)</text>
</g>
<!-- 1281343314484e7384d394f90b0b1719&#45;&gt;cc03ff4afef9477ba6b782796955f5df -->
<g id="edge5" class="edge">
<title>1281343314484e7384d394f90b0b1719&#45;&gt;cc03ff4afef9477ba6b782796955f5df</title>
<path fill="none" stroke="#7b8894" d="M410.26,-366.15C410.26,-366.15 453.01,-366.15 453.01,-366.15"/>
<polygon fill="#7b8894" stroke="#7b8894" points="453.01,-369.65 463.01,-366.15 453.01,-362.65 453.01,-369.65"/>
</g>
<!-- a2d7859a5472496284d90f26b18a3805 -->
<g id="node12" class="node">
<title>a2d7859a5472496284d90f26b18a3805</title>
<image xlink:href="/Users/emma/Irish-Project/hands-on/Hands-on-Lab.Python-Diagram/venv/lib/python3.13/site-packages/resources/aws/devtools/codedeploy.png" width="100.8px" height="100.8px" preserveAspectRatio="xMinYMin meet" x="619.2" y="-416.55"/>
<text xml:space="preserve" text-anchor="middle" x="669.6" y="-298.9" font-family="Sans-Serif" font-size="13.00" fill="#2d3436">codedeploy</text>
</g>
<!-- cc03ff4afef9477ba6b782796955f5df&#45;&gt;a2d7859a5472496284d90f26b18a3805 -->
<g id="edge6" class="edge">
<title>cc03ff4afef9477ba6b782796955f5df&#45;&gt;a2d7859a5472496284d90f26b18a3805</title>
<path fill="none" stroke="#7b8894" d="M565.06,-366.15C565.06,-366.15 607.81,-366.15 607.81,-366.15"/>
<polygon fill="#7b8894" stroke="#7b8894" points="607.81,-369.65 617.81,-366.15 607.81,-362.65 607.81,-369.65"/>
</g>
<!-- a2d7859a5472496284d90f26b18a3805&#45;&gt;629705e21f9e4e28a41d5500c78a87af -->
<g id="edge7" class="edge">
<title>a2d7859a5472496284d90f26b18a3805&#45;&gt;629705e21f9e4e28a41d5500c78a87af</title>
<path fill="none" stroke="#7b8894" d="M719.86,-366.15C719.86,-366.15 762.61,-366.15 762.61,-366.15"/>
<polygon fill="#7b8894" stroke="#7b8894" points="762.61,-369.65 772.61,-366.15 762.61,-362.65 762.61,-369.65"/>
</g>
</g>
</svg>
