<?xml version="1.0" encoding="UTF-8" standalone="no"?>
<!DOCTYPE svg PUBLIC "-//W3C//DTD SVG 1.1//EN"
 "http://www.w3.org/Graphics/SVG/1.1/DTD/svg11.dtd">
<!-- Generated by graphviz version 14.0.0 (20250921.2048)
 -->
<!-- Title: AWS SaaS: CI/CD &#45;&gt; Prod (simplified) Pages: 1 -->
<svg width="1334pt" height="1025pt"
 viewBox="0.00 0.00 1334.00 1025.00" xmlns="http://www.w3.org/2000/svg" xmlns:xlink="http://www.w3.org/1999/xlink">
<g id="graph0" class="graph" transform="scale(1 1) rotate(0) translate(144 881.15)">
<title>AWS SaaS: CI/CD &#45;&gt; Prod (simplified)</title>
<polygon fill="white" stroke="none" points="-144,144 -144,-881.15 1189.6,-881.15 1189.6,144 -144,144"/>
<text xml:space="preserve" text-anchor="middle" x="522.8" y="-5.5" font-family="Sans-Serif" font-size="15.00" fill="#2d3436">AWS SaaS: CI/CD &#45;&gt; Prod (simplified)</text>
<g id="clust1" class="cluster">
<title>cluster_VPC / Prod</title>
<path fill="#e5f5fd" stroke="#aeb6be" d="M770,-196.15C770,-196.15 1025.6,-196.15 1025.6,-196.15 1031.6,-196.15 1037.6,-202.15 1037.6,-208.15 1037.6,-208.15 1037.6,-717.15 1037.6,-717.15 1037.6,-723.15 1031.6,-729.15 1025.6,-729.15 1025.6,-729.15 770,-729.15 770,-729.15 764,-729.15 758,-723.15 758,-717.15 758,-717.15 758,-208.15 758,-208.15 758,-202.15 764,-196.15 770,-196.15"/>
<text xml:space="preserve" text-anchor="middle" x="796" y="-713.75" font-family="Sans-Serif" font-size="12.00" fill="#2d3436">VPC / Prod</text>
</g>
<g id="clust2" class="cluster">
<title>cluster_Compute</title>
<path fill="#ebf3e7" stroke="#aeb6be" d="M778,-290.15C778,-290.15 870.8,-290.15 870.8,-290.15 876.8,-290.15 882.8,-296.15 882.8,-302.15 882.8,-302.15 882.8,-451.15 882.8,-451.15 882.8,-457.15 876.8,-463.15 870.8,-463.15 870.8,-463.15 778,-463.15 778,-463.15 772,-463.15 766,-457.15 766,-451.15 766,-451.15 766,-302.15 766,-302.15 766,-296.15 772,-290.15 778,-290.15"/>
<text xml:space="preserve" text-anchor="middle" x="798.37" y="-447.75" font-family="Sans-Serif" font-size="12.00" fill="#2d3436">Compute</text>
</g>
<!-- b900284eaed94df495cea2b8e5aaaf02 -->
<g id="node1" class="node">
<title>b900284eaed94df495cea2b8e5aaaf02</title>
<image xlink:href="/Users/emma/Irish-Project/hands-on/Hands-on-Lab.Python-Diagram/venv/lib/python3.13/site-packages/resources/aws/general/user.png" width="100.8px" height="100.8px" preserveAspectRatio="xMinYMin meet" x="9.9476e-14" y="-236.55"/>
<text xml:space="preserve" text-anchor="middle" x="50.4" y="-118.9" font-family="Sans-Serif" font-size="13.00" fill="#2d3436">Customer</text>
</g>
<!-- 068b06a808b443fcbfa7fdb0464ab764 -->
<g id="node2" class="node">
<title>068b06a808b443fcbfa7fdb0464ab764</title>
<image xlink:href="/Users/emma/Irish-Project/hands-on/Hands-on-Lab.Python-Diagram/venv/lib/python3.13/site-packages/resources/aws/network/cloudfront.png" width="100.8px" height="100.8px" preserveAspectRatio="xMinYMin meet" x="154.8" y="-236.55"/>
<text xml:space="preserve" text-anchor="middle" x="205.2" y="-118.9" font-family="Sans-Serif" font-size="13.00" fill="#2d3436">cdn</text>
</g>
<!-- b900284eaed94df495cea2b8e5aaaf02&#45;&gt;068b06a808b443fcbfa7fdb0464ab764 -->
<g id="edge1" class="edge">
<title>b900284eaed94df495cea2b8e5aaaf02&#45;&gt;068b06a808b443fcbfa7fdb0464ab764</title>
<path fill="none" stroke="#7b8894" d="M100.66,-186.15C100.66,-186.15 143.41,-186.15 143.41,-186.15"/>
<polygon fill="#7b8894" stroke="#7b8894" points="143.41,-189.65 153.41,-186.15 143.41,-182.65 143.41,-189.65"/>
</g>
<!-- 744ef949b3df4756a168aaf9b2e8fd50 -->
<g id="node3" class="node">
<title>744ef949b3df4756a168aaf9b2e8fd50</title>
<image xlink:href="/Users/emma/Irish-Project/hands-on/Hands-on-Lab.Python-Diagram/venv/lib/python3.13/site-packages/resources/aws/network/elastic-load-balancing.png" width="100.8px" height="100.8px" preserveAspectRatio="xMinYMin meet" x="309.6" y="-236.55"/>
<text xml:space="preserve" text-anchor="middle" x="360" y="-118.9" font-family="Sans-Serif" font-size="13.00" fill="#2d3436">alb</text>
</g>
<!-- 068b06a808b443fcbfa7fdb0464ab764&#45;&gt;744ef949b3df4756a168aaf9b2e8fd50 -->
<g id="edge2" class="edge">
<title>068b06a808b443fcbfa7fdb0464ab764&#45;&gt;744ef949b3df4756a168aaf9b2e8fd50</title>
<path fill="none" stroke="#7b8894" d="M255.46,-186.15C255.46,-186.15 298.21,-186.15 298.21,-186.15"/>
<polygon fill="#7b8894" stroke="#7b8894" points="298.21,-189.65 308.21,-186.15 298.21,-182.65 298.21,-189.65"/>
</g>
<!-- 2bcfccf91087493f9aa1ea178eda4bec -->
<g id="node4" class="node">
<title>2bcfccf91087493f9aa1ea178eda4bec</title>
<image xlink:href="/Users/emma/Irish-Project/hands-on/Hands-on-Lab.Python-Diagram/venv/lib/python3.13/site-packages/resources/aws/compute/elastic-container-service.png" width="100.8px" height="100.8px" preserveAspectRatio="xMinYMin meet" x="774" y="-416.55"/>
<text xml:space="preserve" text-anchor="middle" x="824.4" y="-298.9" font-family="Sans-Serif" font-size="13.00" fill="#2d3436">ecs&#45;cluster</text>
</g>
<!-- 70245320ac084e86a7c5175d0cf8df63 -->
<g id="node5" class="node">
<title>70245320ac084e86a7c5175d0cf8df63</title>
<image xlink:href="/Users/emma/Irish-Project/hands-on/Hands-on-Lab.Python-Diagram/venv/lib/python3.13/site-packages/resources/aws/database/rds-instance.png" width="100.8px" height="100.8px" preserveAspectRatio="xMinYMin meet" x="928.8" y="-322.55"/>
<text xml:space="preserve" text-anchor="middle" x="979.2" y="-204.9" font-family="Sans-Serif" font-size="13.00" fill="#2d3436">user&#45;db</text>
</g>
<!-- 2bcfccf91087493f9aa1ea178eda4bec&#45;&gt;70245320ac084e86a7c5175d0cf8df63 -->
<g id="edge8" class="edge">
<title>2bcfccf91087493f9aa1ea178eda4bec&#45;&gt;70245320ac084e86a7c5175d0cf8df63</title>
<path fill="none" stroke="#7b8894" d="M874.66,-319.15C874.66,-319.15 917.41,-319.15 917.41,-319.15"/>
<polygon fill="#7b8894" stroke="#7b8894" points="917.41,-322.65 927.41,-319.15 917.41,-315.65 917.41,-322.65"/>
</g>
<!-- 5e45fcc0d6fe422f94ceeadeff704997 -->
<g id="node6" class="node">
<title>5e45fcc0d6fe422f94ceeadeff704997</title>
<image xlink:href="/Users/emma/Irish-Project/hands-on/Hands-on-Lab.Python-Diagram/venv/lib/python3.13/site-packages/resources/aws/database/dynamodb-table.png" width="100.8px" height="100.8px" preserveAspectRatio="xMinYMin meet" x="928.8" y="-502.55"/>
<text xml:space="preserve" text-anchor="middle" x="979.2" y="-384.9" font-family="Sans-Serif" font-size="13.00" fill="#2d3436">session&#45;store</text>
</g>
<!-- 2bcfccf91087493f9aa1ea178eda4bec&#45;&gt;5e45fcc0d6fe422f94ceeadeff704997 -->
<g id="edge9" class="edge">
<title>2bcfccf91087493f9aa1ea178eda4bec&#45;&gt;5e45fcc0d6fe422f94ceeadeff704997</title>
<path fill="none" stroke="#7b8894" d="M874.66,-409.15C874.66,-409.15 917.41,-409.15 917.41,-409.15"/>
<polygon fill="#7b8894" stroke="#7b8894" points="917.41,-412.65 927.41,-409.15 917.41,-405.65 917.41,-412.65"/>
</g>
<!-- e6cc41a0219e4ab39f429a7671b9129f -->
<g id="node7" class="node">
<title>e6cc41a0219e4ab39f429a7671b9129f</title>
<image xlink:href="/Users/emma/Irish-Project/hands-on/Hands-on-Lab.Python-Diagram/venv/lib/python3.13/site-packages/resources/aws/storage/simple-storage-service-s3.png" width="100.8px" height="100.8px" preserveAspectRatio="xMinYMin meet" x="928.8" y="-682.55"/>
<text xml:space="preserve" text-anchor="middle" x="979.2" y="-564.9" font-family="Sans-Serif" font-size="13.00" fill="#2d3436">assets&#45;bucket</text>
</g>
<!-- 2bcfccf91087493f9aa1ea178eda4bec&#45;&gt;e6cc41a0219e4ab39f429a7671b9129f -->
<g id="edge10" class="edge">
<title>2bcfccf91087493f9aa1ea178eda4bec&#45;&gt;e6cc41a0219e4ab39f429a7671b9129f</title>
<path fill="none" stroke="#7b8894" d="M824.6,-434.31C824.6,-513.12 824.6,-632.15 824.6,-632.15 824.6,-632.15 917.49,-632.15 917.49,-632.15"/>
<polygon fill="#7b8894" stroke="#7b8894" points="917.49,-635.65 927.49,-632.15 917.49,-628.65 917.49,-635.65"/>
</g>
<!-- 47a8fbb0ce2d4dd996e81a76e763efa2 -->
<g id="node13" class="node">
<title>47a8fbb0ce2d4dd996e81a76e763efa2</title>
<image xlink:href="/Users/emma/Irish-Project/hands-on/Hands-on-Lab.Python-Diagram/venv/lib/python3.13/site-packages/resources/aws/integration/eventbridge.png" width="100.8px" height="100.8px" preserveAspectRatio="xMinYMin meet" x="928.8" y="-142.55"/>
<text xml:space="preserve" text-anchor="middle" x="979.2" y="-24.9" font-family="Sans-Serif" font-size="13.00" fill="#2d3436">events</text>
</g>
<!-- 2bcfccf91087493f9aa1ea178eda4bec&#45;&gt;47a8fbb0ce2d4dd996e81a76e763efa2 -->
<g id="edge11" class="edge">
<title>2bcfccf91087493f9aa1ea178eda4bec&#45;&gt;47a8fbb0ce2d4dd996e81a76e763efa2</title>
<path fill="none" stroke="#7b8894" d="M824.6,-298.04C824.6,-231.18 824.6,-139.15 824.6,-139.15 824.6,-139.15 917.49,-139.15 917.49,-139.15"/>
<polygon fill="#7b8894" stroke="#7b8894" points="917.49,-142.65 927.49,-139.15 917.49,-135.65 917.49,-142.65"/>
</g>
<!-- cac135bac5224b9f804c58d695574832 -->
<g id="node8" class="node">
<title>cac135bac5224b9f804c58d695574832</title>
<image xlink:href="/Users/emma/Irish-Project/hands-on/Hands-on-Lab.Python-Diagram/venv/lib/python3.13/site-packages/resources/aws/security/identity-and-access-management-iam.png" width="100.8px" height="100.8px" preserveAspectRatio="xMinYMin meet" x="8.52651e-14" y="-416.55"/>
<text xml:space="preserve" text-anchor="middle" x="50.4" y="-298.9" font-family="Sans-Serif" font-size="13.00" fill="#2d3436">git&#45;repo (SaaS)</text>
</g>
<!-- a4fa263c8493462880e0e96b815d309e -->
<g id="node9" class="node">
<title>a4fa263c8493462880e0e96b815d309e</title>
<image xlink:href="/Users/emma/Irish-Project/hands-on/Hands-on-Lab.Python-Diagram/venv/lib/python3.13/site-packages/resources/aws/devtools/codepipeline.png" width="100.8px" height="100.8px" preserveAspectRatio="xMinYMin meet" x="154.8" y="-416.55"/>
<text xml:space="preserve" text-anchor="middle" x="205.2" y="-298.9" font-family="Sans-Serif" font-size="13.00" fill="#2d3436">CodePipeline</text>
</g>
<!-- cac135bac5224b9f804c58d695574832&#45;&gt;a4fa263c8493462880e0e96b815d309e -->
<g id="edge3" class="edge">
<title>cac135bac5224b9f804c58d695574832&#45;&gt;a4fa263c8493462880e0e96b815d309e</title>
<path fill="none" stroke="#7b8894" d="M100.66,-366.15C100.66,-366.15 143.41,-366.15 143.41,-366.15"/>
<polygon fill="#7b8894" stroke="#7b8894" points="143.41,-369.65 153.41,-366.15 143.41,-362.65 143.41,-369.65"/>
</g>
<!-- 605eab45f95442758cd57dd64327a2ff -->
<g id="node10" class="node">
<title>605eab45f95442758cd57dd64327a2ff</title>
<image xlink:href="/Users/emma/Irish-Project/hands-on/Hands-on-Lab.Python-Diagram/venv/lib/python3.13/site-packages/resources/aws/devtools/codebuild.png" width="100.8px" height="100.8px" preserveAspectRatio="xMinYMin meet" x="309.6" y="-416.55"/>
<text xml:space="preserve" text-anchor="middle" x="360" y="-298.9" font-family="Sans-Serif" font-size="13.00" fill="#2d3436">Build</text>
</g>
<!-- a4fa263c8493462880e0e96b815d309e&#45;&gt;605eab45f95442758cd57dd64327a2ff -->
<g id="edge4" class="edge">
<title>a4fa263c8493462880e0e96b815d309e&#45;&gt;605eab45f95442758cd57dd64327a2ff</title>
<path fill="none" stroke="#7b8894" d="M255.46,-366.15C255.46,-366.15 298.21,-366.15 298.21,-366.15"/>
<polygon fill="#7b8894" stroke="#7b8894" points="298.21,-369.65 308.21,-366.15 298.21,-362.65 298.21,-369.65"/>
</g>
<!-- 0b61ecebe99d44e8964b02c0b605e50c -->
<g id="node11" class="node">
<title>0b61ecebe99d44e8964b02c0b605e50c</title>
<image xlink:href="/Users/emma/Irish-Project/hands-on/Hands-on-Lab.Python-Diagram/venv/lib/python3.13/site-packages/resources/aws/compute/ec2-container-registry.png" width="100.8px" height="100.8px" preserveAspectRatio="xMinYMin meet" x="464.4" y="-416.55"/>
<text xml:space="preserve" text-anchor="middle" x="514.8" y="-298.9" font-family="Sans-Serif" font-size="13.00" fill="#2d3436">ECR Repository</text>
</g>
<!-- 605eab45f95442758cd57dd64327a2ff&#45;&gt;0b61ecebe99d44e8964b02c0b605e50c -->
<g id="edge5" class="edge">
<title>605eab45f95442758cd57dd64327a2ff&#45;&gt;0b61ecebe99d44e8964b02c0b605e50c</title>
<path fill="none" stroke="#7b8894" d="M410.26,-366.15C410.26,-366.15 453.01,-366.15 453.01,-366.15"/>
<polygon fill="#7b8894" stroke="#7b8894" points="453.01,-369.65 463.01,-366.15 453.01,-362.65 453.01,-369.65"/>
</g>
<!-- 567fa4184b5b4f31bfa480d003df5f63 -->
<g id="node12" class="node">
<title>567fa4184b5b4f31bfa480d003df5f63</title>
<image xlink:href="/Users/emma/Irish-Project/hands-on/Hands-on-Lab.Python-Diagram/venv/lib/python3.13/site-packages/resources/aws/devtools/codedeploy.png" width="100.8px" height="100.8px" preserveAspectRatio="xMinYMin meet" x="619.2" y="-416.55"/>
<text xml:space="preserve" text-anchor="middle" x="669.6" y="-298.9" font-family="Sans-Serif" font-size="13.00" fill="#2d3436">CodeDeploy</text>
</g>
<!-- 0b61ecebe99d44e8964b02c0b605e50c&#45;&gt;567fa4184b5b4f31bfa480d003df5f63 -->
<g id="edge6" class="edge">
<title>0b61ecebe99d44e8964b02c0b605e50c&#45;&gt;567fa4184b5b4f31bfa480d003df5f63</title>
<path fill="none" stroke="#7b8894" d="M565.06,-366.15C565.06,-366.15 607.81,-366.15 607.81,-366.15"/>
<polygon fill="#7b8894" stroke="#7b8894" points="607.81,-369.65 617.81,-366.15 607.81,-362.65 607.81,-369.65"/>
</g>
<!-- 567fa4184b5b4f31bfa480d003df5f63&#45;&gt;2bcfccf91087493f9aa1ea178eda4bec -->
<g id="edge7" class="edge">
<title>567fa4184b5b4f31bfa480d003df5f63&#45;&gt;2bcfccf91087493f9aa1ea178eda4bec</title>
<path fill="none" stroke="#7b8894" d="M719.86,-366.15C719.86,-366.15 762.61,-366.15 762.61,-366.15"/>
<polygon fill="#7b8894" stroke="#7b8894" points="762.61,-369.65 772.61,-366.15 762.61,-362.65 762.61,-369.65"/>
</g>
</g>
</svg>
